<svg width="120" height="30" viewBox="0 0 120 30" fill="none" xmlns="http://www.w3.org/2000/svg">
<path d="M5.9 5.28H8.8V17.2H15.72V20H5.9V5.28ZM17.5725 15.52C17.5725 14.6267 17.7792 13.8267 18.1925 13.12C18.6192 12.4133 19.2125 11.86 19.9725 11.46C20.7325 11.0467 21.6058 10.84 22.5925 10.84C23.5925 10.84 24.4592 11.0467 25.1925 11.46C25.9258 11.86 26.4858 12.4133 26.8725 13.12C27.2725 13.8267 27.4725 14.6267 27.4725 15.52C27.4725 16.4133 27.2725 17.22 26.8725 17.94C26.4858 18.6467 25.9258 19.2067 25.1925 19.62C24.4592 20.0333 23.5792 20.24 22.5525 20.24C21.5925 20.24 20.7325 20.0533 19.9725 19.68C19.2258 19.3067 18.6392 18.7667 18.2125 18.06C17.7858 17.3533 17.5725 16.5067 17.5725 15.52ZM20.3925 15.54C20.3925 15.9933 20.4858 16.4067 20.6725 16.78C20.8592 17.14 21.1125 17.4267 21.4325 17.64C21.7525 17.8533 22.1125 17.96 22.5125 17.96C22.9525 17.96 23.3325 17.8533 23.6525 17.64C23.9725 17.4267 24.2192 17.14 24.3925 16.78C24.5658 16.4067 24.6525 15.9933 24.6525 15.54C24.6525 15.0733 24.5658 14.66 24.3925 14.3C24.2192 13.94 23.9725 13.6533 23.6525 13.44C23.3325 13.2267 22.9525 13.12 22.5125 13.12C22.1125 13.12 21.7525 13.2267 21.4325 13.44C21.1125 13.6533 20.8592 13.94 20.6725 14.3C20.4858 14.66 20.3925 15.0733 20.3925 15.54ZM34.1983 24.4C33.4116 24.4 32.7449 24.3067 32.1983 24.12C31.6649 23.9333 31.2116 23.7067 30.8383 23.44C30.4649 23.1733 30.1316 22.92 29.8383 22.68L31.4783 20.76C31.7849 21.04 32.1383 21.3067 32.5383 21.56C32.9516 21.8267 33.4916 21.96 34.1583 21.96C34.5983 21.96 35.0049 21.88 35.3783 21.72C35.7649 21.5733 36.0716 21.3533 36.2983 21.06C36.5383 20.7667 36.6583 20.4 36.6583 19.96V18.04L36.7583 18.54C36.5449 18.9933 36.1583 19.3933 35.5983 19.74C35.0383 20.0733 34.3049 20.24 33.3983 20.24C32.6116 20.24 31.8783 20.04 31.1983 19.64C30.5316 19.2267 29.9983 18.6733 29.5983 17.98C29.1983 17.2733 28.9983 16.4733 28.9983 15.58C28.9983 14.66 29.2116 13.8467 29.6383 13.14C30.0649 12.42 30.6183 11.8533 31.2983 11.44C31.9783 11.0267 32.6983 10.82 33.4583 10.82C34.2183 10.82 34.8716 10.9333 35.4183 11.16C35.9783 11.3733 36.3983 11.64 36.6783 11.96L36.5783 12.22L36.8783 11.26H39.4583V20C39.4583 20.8533 39.2183 21.6067 38.7383 22.26C38.2583 22.9267 37.6183 23.4467 36.8183 23.82C36.0316 24.2067 35.1583 24.4 34.1983 24.4ZM31.8183 15.5C31.8183 15.9667 31.9249 16.3867 32.1383 16.76C32.3516 17.1333 32.6383 17.4267 32.9983 17.64C33.3716 17.8533 33.7849 17.96 34.2383 17.96C34.6249 17.96 34.9649 17.9133 35.2583 17.82C35.5649 17.7133 35.8316 17.5667 36.0583 17.38C36.2983 17.18 36.4983 16.9333 36.6583 16.64V14.5C36.5383 14.2067 36.3583 13.96 36.1183 13.76C35.8783 13.5467 35.5983 13.3867 35.2783 13.28C34.9716 13.16 34.6249 13.1 34.2383 13.1C33.7849 13.1 33.3716 13.2067 32.9983 13.42C32.6383 13.62 32.3516 13.9 32.1383 14.26C31.9249 14.62 31.8183 15.0333 31.8183 15.5ZM41.6545 15.52C41.6545 14.6267 41.8612 13.8267 42.2745 13.12C42.7012 12.4133 43.2945 11.86 44.0545 11.46C44.8145 11.0467 45.6879 10.84 46.6745 10.84C47.6745 10.84 48.5412 11.0467 49.2745 11.46C50.0079 11.86 50.5679 12.4133 50.9545 13.12C51.3545 13.8267 51.5545 14.6267 51.5545 15.52C51.5545 16.4133 51.3545 17.22 50.9545 17.94C50.5679 18.6467 50.0079 19.2067 49.2745 19.62C48.5412 20.0333 47.6612 20.24 46.6345 20.24C45.6745 20.24 44.8145 20.0533 44.0545 19.68C43.3079 19.3067 42.7212 18.7667 42.2945 18.06C41.8679 17.3533 41.6545 16.5067 41.6545 15.52ZM44.4745 15.54C44.4745 15.9933 44.5679 16.4067 44.7545 16.78C44.9412 17.14 45.1945 17.4267 45.5145 17.64C45.8345 17.8533 46.1945 17.96 46.5945 17.96C47.0345 17.96 47.4145 17.8533 47.7345 17.64C48.0545 17.4267 48.3012 17.14 48.4745 16.78C48.6479 16.4067 48.7345 15.9933 48.7345 15.54C48.7345 15.0733 48.6479 14.66 48.4745 14.3C48.3012 13.94 48.0545 13.6533 47.7345 13.44C47.4145 13.2267 47.0345 13.12 46.5945 13.12C46.1945 13.12 45.8345 13.2267 45.5145 13.44C45.1945 13.6533 44.9412 13.94 44.7545 14.3C44.5679 14.66 44.4745 15.0733 44.4745 15.54ZM61.0842 7.42H63.8842V11.22H66.0042V13.4H63.8842V20H61.0842V13.4H59.7242V11.22H61.0842V7.42ZM71.8153 20.24C71.002 20.24 70.262 20.08 69.5953 19.76C68.942 19.4267 68.422 18.92 68.0353 18.24C67.6486 17.56 67.4553 16.6933 67.4553 15.64C67.4553 14.6533 67.6553 13.8 68.0553 13.08C68.4553 12.36 68.982 11.8067 69.6353 11.42C70.2886 11.02 70.982 10.82 71.7153 10.82C72.582 10.82 73.2353 10.9667 73.6753 11.26C74.1286 11.54 74.502 11.8533 74.7953 12.2L74.6753 12.54L74.9353 11.26H77.5353V20H74.7353V18.1L74.9553 18.7C74.9286 18.7 74.8486 18.78 74.7153 18.94C74.582 19.0867 74.382 19.2667 74.1153 19.48C73.862 19.68 73.542 19.8533 73.1553 20C72.782 20.16 72.3353 20.24 71.8153 20.24ZM72.6153 17.96C72.9486 17.96 73.2486 17.9133 73.5153 17.82C73.782 17.7133 74.0153 17.5667 74.2153 17.38C74.4153 17.18 74.5886 16.9333 74.7353 16.64V14.5C74.6286 14.2067 74.4686 13.96 74.2553 13.76C74.042 13.5467 73.7886 13.3867 73.4953 13.28C73.202 13.16 72.8753 13.1 72.5153 13.1C72.1153 13.1 71.742 13.2067 71.3953 13.42C71.062 13.62 70.7953 13.9 70.5953 14.26C70.3953 14.62 70.2953 15.0333 70.2953 15.5C70.2953 15.9667 70.402 16.3867 70.6153 16.76C70.8286 17.1333 71.1086 17.4267 71.4553 17.64C71.8153 17.8533 72.202 17.96 72.6153 17.96ZM86.1605 20.24C85.4271 20.24 84.8071 20.12 84.3005 19.88C83.8071 19.6267 83.3738 19.3 83.0005 18.9L83.2205 18.3V20H80.4205V4.22H83.2005V12.76V11.86C83.5471 11.5667 84.0071 11.32 84.5805 11.12C85.1538 10.92 85.8071 10.82 86.5405 10.82C87.3005 10.82 87.9938 11 88.6205 11.36C89.2471 11.72 89.7471 12.2467 90.1205 12.94C90.5071 13.62 90.7005 14.4533 90.7005 15.44C90.7005 16.4267 90.4871 17.28 90.0605 18C89.6471 18.72 89.0938 19.2733 88.4005 19.66C87.7071 20.0467 86.9605 20.24 86.1605 20.24ZM85.5405 17.88C85.9538 17.88 86.3338 17.7733 86.6805 17.56C87.0405 17.3467 87.3271 17.0533 87.5405 16.68C87.7538 16.3067 87.8605 15.8867 87.8605 15.42C87.8605 14.9533 87.7538 14.54 87.5405 14.18C87.3271 13.82 87.0405 13.54 86.6805 13.34C86.3338 13.1267 85.9538 13.02 85.5405 13.02C85.1805 13.02 84.8405 13.08 84.5205 13.2C84.2138 13.3067 83.9471 13.4667 83.7205 13.68C83.5071 13.88 83.3405 14.1267 83.2205 14.42V16.56C83.3805 16.8533 83.5671 17.1 83.7805 17.3C84.0071 17.4867 84.2671 17.6333 84.5605 17.74C84.8538 17.8333 85.1805 17.88 85.5405 17.88ZM92.9009 4.22H95.7009V20H92.9009V4.22ZM102.885 20.24C101.818 20.24 100.911 20.04 100.165 19.64C99.4312 19.24 98.8712 18.6867 98.4845 17.98C98.0979 17.2733 97.9045 16.46 97.9045 15.54C97.9045 14.66 98.1312 13.8667 98.5845 13.16C99.0379 12.4533 99.6445 11.8933 100.405 11.48C101.165 11.0533 102.011 10.84 102.945 10.84C104.198 10.84 105.225 11.2067 106.025 11.94C106.838 12.66 107.365 13.7067 107.605 15.08L100.805 17.24L100.185 15.72L105.105 14.06L104.525 14.32C104.418 13.9733 104.225 13.6733 103.945 13.42C103.678 13.1533 103.271 13.02 102.725 13.02C102.311 13.02 101.945 13.12 101.625 13.32C101.318 13.5067 101.078 13.78 100.905 14.14C100.745 14.4867 100.665 14.9 100.665 15.38C100.665 15.9267 100.765 16.3867 100.965 16.76C101.165 17.12 101.438 17.3933 101.785 17.58C102.131 17.7667 102.518 17.86 102.945 17.86C103.251 17.86 103.545 17.8067 103.825 17.7C104.118 17.5933 104.405 17.4533 104.685 17.28L105.925 19.36C105.458 19.6267 104.951 19.84 104.405 20C103.871 20.16 103.365 20.24 102.885 20.24ZM110.459 7.42H113.259V11.22H115.379V13.4H113.259V20H110.459V13.4H109.099V11.22H110.459V7.42Z" fill="#1A16DB"/>
</svg>
