<svg width="60" height="20" viewBox="0 0 60 20" fill="none" xmlns="http://www.w3.org/2000/svg">
<path d="M9 0.439999H11.34V12.76H18.52V15H9V0.439999ZM20.4377 10.68C20.4377 9.82667 20.6377 9.06 21.0377 8.38C21.4377 7.68667 21.9977 7.14667 22.7177 6.76C23.451 6.36 24.2777 6.16 25.1977 6.16C26.1443 6.16 26.9643 6.36 27.6577 6.76C28.3643 7.14667 28.911 7.68667 29.2977 8.38C29.6843 9.06 29.8777 9.82667 29.8777 10.68C29.8777 11.5333 29.6843 12.3067 29.2977 13C28.911 13.68 28.3643 14.22 27.6577 14.62C26.9643 15.02 26.1377 15.22 25.1777 15.22C24.271 15.22 23.4577 15.04 22.7377 14.68C22.0177 14.3067 21.451 13.78 21.0377 13.1C20.6377 12.42 20.4377 11.6133 20.4377 10.68ZM22.6977 10.7C22.6977 11.1933 22.8043 11.6467 23.0177 12.06C23.231 12.46 23.5243 12.78 23.8977 13.02C24.271 13.26 24.6843 13.38 25.1377 13.38C25.631 13.38 26.0577 13.26 26.4177 13.02C26.791 12.78 27.0777 12.46 27.2777 12.06C27.491 11.6467 27.5977 11.1933 27.5977 10.7C27.5977 10.1933 27.491 9.74 27.2777 9.34C27.0777 8.92667 26.791 8.6 26.4177 8.36C26.0577 8.12 25.631 8 25.1377 8C24.671 8 24.251 8.12667 23.8777 8.38C23.5177 8.62 23.231 8.94 23.0177 9.34C22.8043 9.74 22.6977 10.1933 22.6977 10.7ZM36.4514 19.22C35.7581 19.22 35.1647 19.14 34.6714 18.98C34.1781 18.82 33.7381 18.6067 33.3514 18.34C32.9781 18.0867 32.6247 17.82 32.2914 17.54L33.6114 16C33.9981 16.36 34.4047 16.66 34.8314 16.9C35.2714 17.14 35.7981 17.26 36.4114 17.26C36.9581 17.26 37.4314 17.1667 37.8314 16.98C38.2447 16.7933 38.5647 16.5333 38.7914 16.2C39.0181 15.8667 39.1381 15.4667 39.1514 15V12.9L39.2914 13.32C39.0647 13.84 38.6514 14.2867 38.0514 14.66C37.4514 15.0333 36.7047 15.22 35.8114 15.22C35.0381 15.22 34.3247 15.0267 33.6714 14.64C33.0181 14.24 32.4981 13.7 32.1114 13.02C31.7247 12.34 31.5314 11.5733 31.5314 10.72C31.5314 9.84 31.7314 9.06 32.1314 8.38C32.5447 7.68667 33.0847 7.14667 33.7514 6.76C34.4314 6.36 35.1514 6.16 35.9114 6.16C36.6581 6.16 37.3181 6.29333 37.8914 6.56C38.4781 6.82667 38.9181 7.16 39.2114 7.56L39.0914 7.88L39.3314 6.54H41.3914V15.04C41.3914 15.8267 41.1781 16.5333 40.7514 17.16C40.3381 17.8 39.7581 18.3 39.0114 18.66C38.2781 19.0333 37.4247 19.22 36.4514 19.22ZM33.7914 10.66C33.7914 11.1667 33.9047 11.6267 34.1314 12.04C34.3714 12.4533 34.6914 12.78 35.0914 13.02C35.5047 13.26 35.9647 13.38 36.4714 13.38C36.9114 13.38 37.3047 13.3067 37.6514 13.16C38.0114 13.0133 38.3181 12.8067 38.5714 12.54C38.8381 12.2733 39.0314 11.96 39.1514 11.6V9.76C39.0314 9.4 38.8381 9.09333 38.5714 8.84C38.3181 8.57333 38.0114 8.36667 37.6514 8.22C37.3047 8.07333 36.9114 8 36.4714 8C35.9647 8 35.5047 8.11333 35.0914 8.34C34.6914 8.56667 34.3714 8.88 34.1314 9.28C33.9047 9.68 33.7914 10.14 33.7914 10.66ZM43.7775 10.68C43.7775 9.82667 43.9775 9.06 44.3775 8.38C44.7775 7.68667 45.3375 7.14667 46.0575 6.76C46.7908 6.36 47.6175 6.16 48.5375 6.16C49.4842 6.16 50.3042 6.36 50.9975 6.76C51.7042 7.14667 52.2508 7.68667 52.6375 8.38C53.0242 9.06 53.2175 9.82667 53.2175 10.68C53.2175 11.5333 53.0242 12.3067 52.6375 13C52.2508 13.68 51.7042 14.22 50.9975 14.62C50.3042 15.02 49.4775 15.22 48.5175 15.22C47.6108 15.22 46.7975 15.04 46.0775 14.68C45.3575 14.3067 44.7908 13.78 44.3775 13.1C43.9775 12.42 43.7775 11.6133 43.7775 10.68ZM46.0375 10.7C46.0375 11.1933 46.1442 11.6467 46.3575 12.06C46.5708 12.46 46.8642 12.78 47.2375 13.02C47.6108 13.26 48.0242 13.38 48.4775 13.38C48.9708 13.38 49.3975 13.26 49.7575 13.02C50.1308 12.78 50.4175 12.46 50.6175 12.06C50.8308 11.6467 50.9375 11.1933 50.9375 10.7C50.9375 10.1933 50.8308 9.74 50.6175 9.34C50.4175 8.92667 50.1308 8.6 49.7575 8.36C49.3975 8.12 48.9708 8 48.4775 8C48.0108 8 47.5908 8.12667 47.2175 8.38C46.8575 8.62 46.5708 8.94 46.3575 9.34C46.1442 9.74 46.0375 10.1933 46.0375 10.7Z" fill="#DB1616"/>
</svg>
