<svg width="150" height="40" viewBox="0 0 150 40" fill="none" xmlns="http://www.w3.org/2000/svg">
<path d="M3.496 8.648H5.824V23.768H14.632V26H3.496V8.648ZM17.0097 20.936C17.0097 19.944 17.2417 19.048 17.7057 18.248C18.1857 17.448 18.8417 16.816 19.6737 16.352C20.5057 15.888 21.4497 15.656 22.5057 15.656C23.5937 15.656 24.5457 15.888 25.3617 16.352C26.1777 16.816 26.8097 17.448 27.2577 18.248C27.7057 19.048 27.9297 19.944 27.9297 20.936C27.9297 21.928 27.7057 22.832 27.2577 23.648C26.8097 24.448 26.1697 25.08 25.3377 25.544C24.5217 26.008 23.5697 26.24 22.4817 26.24C21.4257 26.24 20.4817 26.024 19.6497 25.592C18.8337 25.144 18.1857 24.528 17.7057 23.744C17.2417 22.944 17.0097 22.008 17.0097 20.936ZM19.2417 20.96C19.2417 21.6 19.3857 22.184 19.6737 22.712C19.9617 23.224 20.3457 23.632 20.8257 23.936C21.3217 24.24 21.8657 24.392 22.4577 24.392C23.0817 24.392 23.6337 24.24 24.1137 23.936C24.6097 23.632 24.9937 23.224 25.2657 22.712C25.5377 22.184 25.6737 21.6 25.6737 20.96C25.6737 20.32 25.5377 19.744 25.2657 19.232C24.9937 18.704 24.6097 18.288 24.1137 17.984C23.6337 17.664 23.0817 17.504 22.4577 17.504C21.8497 17.504 21.2977 17.664 20.8017 17.984C20.3217 18.304 19.9377 18.728 19.6497 19.256C19.3777 19.768 19.2417 20.336 19.2417 20.96ZM35.7278 30.92C34.9918 30.92 34.3438 30.832 33.7838 30.656C33.2238 30.496 32.7118 30.264 32.2478 29.96C31.7998 29.656 31.3678 29.312 30.9518 28.928L32.2478 27.416C32.7758 27.912 33.3118 28.296 33.8558 28.568C34.3998 28.84 35.0078 28.976 35.6798 28.976C36.4318 28.976 37.0638 28.848 37.5758 28.592C38.1038 28.352 38.5038 28.008 38.7758 27.56C39.0478 27.128 39.1838 26.624 39.1838 26.048L39.2078 23.36L39.3998 23.792C39.1118 24.48 38.5918 25.064 37.8398 25.544C37.0878 26.008 36.1758 26.24 35.1038 26.24C34.1918 26.24 33.3518 26.008 32.5838 25.544C31.8318 25.08 31.2238 24.456 30.7598 23.672C30.3118 22.872 30.0878 21.976 30.0878 20.984C30.0878 19.944 30.3278 19.032 30.8078 18.248C31.2878 17.448 31.9198 16.816 32.7038 16.352C33.4878 15.888 34.3438 15.656 35.2718 15.656C36.1518 15.656 36.9518 15.84 37.6718 16.208C38.4078 16.56 38.9438 17.016 39.2798 17.576L39.1598 17.984L39.3998 16.064H41.4398V26.072C41.4398 26.968 41.2078 27.784 40.7438 28.52C40.2798 29.256 39.6238 29.84 38.7758 30.272C37.9278 30.704 36.9118 30.92 35.7278 30.92ZM32.3198 20.936C32.3198 21.576 32.4718 22.16 32.7758 22.688C33.0798 23.216 33.4878 23.632 33.9998 23.936C34.5278 24.24 35.1118 24.392 35.7518 24.392C36.3438 24.392 36.8718 24.288 37.3358 24.08C37.8158 23.856 38.2158 23.56 38.5358 23.192C38.8558 22.808 39.0798 22.368 39.2078 21.872V19.904C39.0638 19.424 38.8238 19.008 38.4878 18.656C38.1518 18.288 37.7518 18.008 37.2878 17.816C36.8238 17.608 36.3118 17.504 35.7518 17.504C35.1118 17.504 34.5278 17.648 33.9998 17.936C33.4878 18.224 33.0798 18.632 32.7758 19.16C32.4718 19.672 32.3198 20.264 32.3198 20.936ZM44.4316 20.936C44.4316 19.944 44.6636 19.048 45.1276 18.248C45.6076 17.448 46.2636 16.816 47.0956 16.352C47.9276 15.888 48.8716 15.656 49.9276 15.656C51.0156 15.656 51.9676 15.888 52.7836 16.352C53.5996 16.816 54.2316 17.448 54.6796 18.248C55.1276 19.048 55.3516 19.944 55.3516 20.936C55.3516 21.928 55.1276 22.832 54.6796 23.648C54.2316 24.448 53.5916 25.08 52.7596 25.544C51.9436 26.008 50.9916 26.24 49.9036 26.24C48.8476 26.24 47.9036 26.024 47.0716 25.592C46.2556 25.144 45.6076 24.528 45.1276 23.744C44.6636 22.944 44.4316 22.008 44.4316 20.936ZM46.6636 20.96C46.6636 21.6 46.8076 22.184 47.0956 22.712C47.3836 23.224 47.7676 23.632 48.2476 23.936C48.7436 24.24 49.2876 24.392 49.8796 24.392C50.5036 24.392 51.0556 24.24 51.5356 23.936C52.0316 23.632 52.4156 23.224 52.6876 22.712C52.9596 22.184 53.0956 21.6 53.0956 20.96C53.0956 20.32 52.9596 19.744 52.6876 19.232C52.4156 18.704 52.0316 18.288 51.5356 17.984C51.0556 17.664 50.5036 17.504 49.8796 17.504C49.2716 17.504 48.7196 17.664 48.2236 17.984C47.7436 18.304 47.3596 18.728 47.0716 19.256C46.7996 19.768 46.6636 20.336 46.6636 20.96ZM69.9994 26.24C69.0874 26.24 68.2554 26.024 67.5034 25.592C66.7674 25.144 66.1834 24.52 65.7514 23.72C65.3194 22.904 65.1034 21.968 65.1034 20.912C65.1034 19.808 65.3274 18.864 65.7754 18.08C66.2394 17.296 66.8634 16.696 67.6474 16.28C68.4314 15.864 69.3114 15.656 70.2874 15.656C71.0714 15.656 71.8154 15.824 72.5194 16.16C73.2394 16.496 73.7994 16.96 74.1994 17.552L74.1034 18.344V7.424H76.3114V26H74.0794V23.528L74.3194 24.152C73.8554 24.76 73.2554 25.264 72.5194 25.664C71.7834 26.048 70.9434 26.24 69.9994 26.24ZM70.6954 24.344C71.2874 24.344 71.8154 24.24 72.2794 24.032C72.7434 23.808 73.1274 23.504 73.4314 23.12C73.7354 22.736 73.9514 22.28 74.0794 21.752V19.88C73.9514 19.4 73.7194 18.984 73.3834 18.632C73.0634 18.264 72.6714 17.976 72.2074 17.768C71.7594 17.544 71.2554 17.432 70.6954 17.432C70.0874 17.432 69.5274 17.584 69.0154 17.888C68.5194 18.176 68.1194 18.576 67.8154 19.088C67.5114 19.6 67.3594 20.192 67.3594 20.864C67.3594 21.52 67.5114 22.112 67.8154 22.64C68.1194 23.152 68.5274 23.568 69.0394 23.888C69.5514 24.192 70.1034 24.344 70.6954 24.344ZM84.802 26.24C83.666 26.24 82.69 26.016 81.874 25.568C81.058 25.104 80.426 24.48 79.978 23.696C79.546 22.896 79.33 21.984 79.33 20.96C79.33 19.984 79.578 19.096 80.074 18.296C80.57 17.496 81.234 16.856 82.066 16.376C82.898 15.896 83.826 15.656 84.85 15.656C86.162 15.656 87.25 16.04 88.114 16.808C88.978 17.576 89.562 18.632 89.866 19.976L81.682 22.856L81.154 21.536L87.874 19.088L87.394 19.4C87.202 18.872 86.882 18.416 86.434 18.032C85.986 17.632 85.402 17.432 84.682 17.432C84.074 17.432 83.53 17.584 83.05 17.888C82.57 18.176 82.194 18.576 81.922 19.088C81.65 19.6 81.514 20.184 81.514 20.84C81.514 21.528 81.658 22.136 81.946 22.664C82.234 23.176 82.626 23.584 83.122 23.888C83.634 24.176 84.21 24.32 84.85 24.32C85.282 24.32 85.698 24.24 86.098 24.08C86.514 23.92 86.898 23.712 87.25 23.456L88.282 25.112C87.786 25.448 87.226 25.72 86.602 25.928C85.994 26.136 85.394 26.24 84.802 26.24ZM95.4468 26.192C94.7428 26.192 94.0548 26.072 93.3828 25.832C92.7268 25.576 92.1828 25.2 91.7508 24.704L92.6868 23.408C93.1028 23.808 93.5268 24.112 93.9588 24.32C94.4068 24.512 94.8468 24.608 95.2788 24.608C95.5988 24.608 95.8948 24.568 96.1668 24.488C96.4388 24.408 96.6548 24.28 96.8148 24.104C96.9908 23.912 97.0788 23.656 97.0788 23.336C97.0788 22.984 96.9588 22.704 96.7188 22.496C96.4948 22.288 96.1988 22.12 95.8308 21.992C95.4788 21.864 95.1028 21.744 94.7028 21.632C93.8868 21.36 93.2628 20.984 92.8308 20.504C92.3988 20.024 92.1828 19.44 92.1828 18.752C92.1828 18.224 92.3108 17.736 92.5668 17.288C92.8388 16.824 93.2308 16.448 93.7428 16.16C94.2708 15.872 94.9188 15.728 95.6868 15.728C96.3748 15.728 96.9908 15.816 97.5348 15.992C98.0788 16.152 98.5908 16.424 99.0708 16.808L98.1828 18.2C97.8948 17.896 97.5508 17.672 97.1508 17.528C96.7508 17.384 96.3908 17.304 96.0708 17.288C95.7988 17.272 95.5348 17.312 95.2788 17.408C95.0388 17.504 94.8388 17.64 94.6788 17.816C94.5188 17.992 94.4388 18.2 94.4388 18.44C94.4388 18.776 94.5508 19.048 94.7748 19.256C94.9988 19.464 95.2868 19.632 95.6388 19.76C96.0068 19.872 96.3668 19.992 96.7188 20.12C97.2148 20.264 97.6548 20.456 98.0388 20.696C98.4228 20.936 98.7268 21.232 98.9508 21.584C99.1908 21.936 99.3108 22.376 99.3108 22.904C99.3108 23.496 99.1668 24.048 98.8788 24.56C98.6068 25.056 98.1828 25.456 97.6068 25.76C97.0468 26.048 96.3268 26.192 95.4468 26.192ZM102.436 26V7.424H104.668V26H102.436ZM107.068 19.4L111.628 26H109.012L105.58 20.648L107.068 19.4ZM103.972 22.832L103.756 20.696L109.78 15.848L111.148 17.024L103.972 22.832ZM115.349 11.696H117.581V16.112H120.317V17.864H117.581V26H115.349V17.864H113.525V16.112H115.349V11.696ZM122.15 20.936C122.15 19.944 122.382 19.048 122.846 18.248C123.326 17.448 123.982 16.816 124.814 16.352C125.646 15.888 126.59 15.656 127.646 15.656C128.734 15.656 129.686 15.888 130.502 16.352C131.318 16.816 131.95 17.448 132.398 18.248C132.846 19.048 133.07 19.944 133.07 20.936C133.07 21.928 132.846 22.832 132.398 23.648C131.95 24.448 131.31 25.08 130.478 25.544C129.662 26.008 128.71 26.24 127.622 26.24C126.566 26.24 125.622 26.024 124.79 25.592C123.974 25.144 123.326 24.528 122.846 23.744C122.382 22.944 122.15 22.008 122.15 20.936ZM124.382 20.96C124.382 21.6 124.526 22.184 124.814 22.712C125.102 23.224 125.486 23.632 125.966 23.936C126.462 24.24 127.006 24.392 127.598 24.392C128.222 24.392 128.774 24.24 129.254 23.936C129.75 23.632 130.134 23.224 130.406 22.712C130.678 22.184 130.814 21.6 130.814 20.96C130.814 20.32 130.678 19.744 130.406 19.232C130.134 18.704 129.75 18.288 129.254 17.984C128.774 17.664 128.222 17.504 127.598 17.504C126.99 17.504 126.438 17.664 125.942 17.984C125.462 18.304 125.078 18.728 124.79 19.256C124.518 19.768 124.382 20.336 124.382 20.96ZM141.948 26.24C141.196 26.24 140.468 26.064 139.764 25.712C139.076 25.36 138.54 24.888 138.156 24.296L138.3 23.6V30.776H136.092V15.92H138.012L138.324 18.464L138.084 17.768C138.564 17.16 139.172 16.656 139.908 16.256C140.644 15.856 141.468 15.656 142.38 15.656C143.308 15.656 144.14 15.88 144.876 16.328C145.628 16.776 146.22 17.4 146.652 18.2C147.084 19 147.3 19.936 147.3 21.008C147.3 22.08 147.068 23.008 146.604 23.792C146.14 24.576 145.5 25.184 144.684 25.616C143.884 26.032 142.972 26.24 141.948 26.24ZM141.516 24.464C142.156 24.464 142.74 24.32 143.268 24.032C143.812 23.728 144.244 23.32 144.564 22.808C144.884 22.28 145.044 21.688 145.044 21.032C145.044 20.36 144.892 19.768 144.588 19.256C144.284 18.728 143.876 18.312 143.364 18.008C142.868 17.704 142.308 17.552 141.684 17.552C141.108 17.552 140.588 17.664 140.124 17.888C139.66 18.112 139.276 18.424 138.972 18.824C138.668 19.208 138.452 19.656 138.324 20.168V21.824C138.404 22.336 138.596 22.792 138.9 23.192C139.204 23.592 139.58 23.904 140.028 24.128C140.492 24.352 140.988 24.464 141.516 24.464Z" fill="#DB1616"/>
</svg>
